HIERARCHY
ROOT Hips
{
	OFFSET 0.0000 0.0000 0.0000
	CHANNELS 6 Xposition Yposition Zposition Zrotation Xrotation Yrotation
	JOINT Ab
	{
		OFFSET -0.0000 8.0846 -0.0000
		CHANNELS 3 Zrotation Xrotation Yrotation
		JOINT Chest
		{
			OFFSET -0.0000 25.0068 -0.0000
			CHANNELS 3 Zrotation Xrotation Yrotation
			JOINT Neck
			{
				OFFSET -0.0000 25.0068 0.0000
				CHANNELS 3 Zrotation Xrotation Yrotation
				JOINT Head
				{
					OFFSET -0.0000 10.7556 0.0000
					CHANNELS 3 Zrotation Xrotation Yrotation
					End Site
					{
						OFFSET -0.0000 16.6222 0.0000
					}
				}
			}
			JOINT LeftCollar
			{
				OFFSET -0.0000 25.0068 0.0000
				CHANNELS 3 Zrotation Xrotation Yrotation
				JOINT LeftShoulder
				{
					OFFSET 19.5556 -0.0000 0.0000
					CHANNELS 3 Zrotation Xrotation Yrotation
					JOINT LeftElbow
					{
						OFFSET 27.1828 0.0000 0.0000
						CHANNELS 3 Zrotation Xrotation Yrotation
						JOINT LeftWrist
						{
							OFFSET 23.3157 0.0000 0.0000
							CHANNELS 3 Zrotation Xrotation Yrotation
							End Site
							{
								OFFSET 0.0000 -14.6667 0.0000
							}
						}
					}
				}
			}
			JOINT RightCollar
			{
				OFFSET -0.0000 25.0068 0.0000
				CHANNELS 3 Zrotation Xrotation Yrotation
				JOINT RightShoulder
				{
					OFFSET -19.5556 0.0000 0.0000
					CHANNELS 3 Zrotation Xrotation Yrotation
					JOINT RightElbow
					{
						OFFSET -27.1828 0.0000 0.0000
						CHANNELS 3 Zrotation Xrotation Yrotation
						JOINT RightWrist
						{
							OFFSET -23.3157 0.0000 0.0000
							CHANNELS 3 Zrotation Xrotation Yrotation
							End Site
							{
								OFFSET -0.0000 -14.6667 0.0000
							}
						}
					}
				}
			}
		}
	}
	JOINT LeftHip
	{
		OFFSET 11.7333 0.0000 0.0000
		CHANNELS 3 Zrotation Xrotation Yrotation
		JOINT LeftKnee
		{
			OFFSET -0.0000 -40.8688 0.0000
			CHANNELS 3 Zrotation Xrotation Yrotation
			JOINT LeftAnkle
			{
				OFFSET -0.0000 -44.4337 0.0000
				CHANNELS 3 Zrotation Xrotation Yrotation
				End Site
				{
					OFFSET -0.0000 -4.8889 16.6222
				}
			}
		}
	}
	JOINT RightHip
	{
		OFFSET -11.7333 0.0000 0.0000
		CHANNELS 3 Zrotation Xrotation Yrotation
		JOINT RightKnee
		{
			OFFSET -0.0000 -40.8688 0.0000
			CHANNELS 3 Zrotation Xrotation Yrotation
			JOINT RightAnkle
			{
				OFFSET -0.0000 -44.4337 0.0000
				CHANNELS 3 Zrotation Xrotation Yrotation
				End Site
				{
					OFFSET -0.0000 -4.8889 16.6222
				}
			}
		}
	}
}
MOTION
Frames: 24
Frame Time: 0.010000
-6.9379 86.9518 90.3439 2.4433 0.1865 175.3886 358.3307 2.6615 357.3401 1.2206 12.9872 357.1615 6.5094 344.9347 2.5989 356.6643 14.7381 2.1680 339.8878 358.7243 7.2170 315.2529 37.8159 339.5298 27.8619 351.4848 327.1091 83.0973 358.2953 354.6009 20.0632 358.8912 353.7163 65.4588 34.0750 1.0467 342.0941 355.4897 28.1698 279.7859 353.3663 27.1108 358.1973 4.9139 357.0006 357.6910 10.5024 357.4280 359.2627 348.6551 20.2554 2.3938 332.8814 3.7647 0.3734 17.9300 0.5416 356.5501 352.1341 341.2989 
-6.8532 86.8360 89.7668 2.3321 0.2400 175.5838 358.3041 2.6507 357.3187 1.2301 13.1104 357.1366 6.5376 344.9175 2.5386 356.6582 14.7478 2.1047 339.8655 358.7435 7.0475 315.2175 37.4714 339.7174 27.7403 351.5785 326.9797 83.1473 358.3676 354.3410 20.0493 358.8899 353.6489 65.5718 33.8830 0.8567 342.2000 355.5079 28.1557 279.8410 353.3595 27.3553 358.1798 5.2463 356.9508 357.6148 10.6810 357.3445 359.2756 348.4094 20.1598 2.2474 332.8711 3.8569 0.3821 17.3781 0.6866 356.6763 352.0196 341.1253 
-6.7625 86.7213 89.1948 2.2282 0.2667 175.7871 358.2892 2.6426 357.3014 1.2407 13.2017 357.1177 6.5762 344.8751 2.4799 356.5938 14.7967 2.0484 339.8360 358.7574 6.9179 315.1941 37.1821 339.8818 27.5795 351.6543 326.8115 83.3984 358.4928 354.0689 20.0394 358.8813 353.5936 65.6706 33.7363 0.6701 342.2554 355.5240 28.1915 279.9790 353.4787 27.4744 358.1685 5.5391 356.9421 357.5793 10.8803 357.2247 359.2371 348.1524 20.0311 2.1181 332.7939 3.9250 0.3645 17.0512 0.6842 357.0381 351.8095 340.9940 
-6.6634 86.6060 88.6112 2.1434 0.3027 175.9774 358.2740 2.6468 357.3065 1.2844 13.2811 357.1158 6.6698 344.8284 2.4544 356.4885 14.8753 2.0274 339.7884 358.7732 6.8230 315.1912 36.9680 340.0084 27.4266 351.7044 326.6796 83.7158 358.6005 353.9375 20.0088 358.8709 353.5368 65.7652 33.5964 0.4833 342.3349 355.5485 28.1936 280.0665 353.4384 27.6153 358.1888 5.8360 357.0863 357.5732 11.1230 356.8789 359.0219 347.8498 19.9308 2.0019 332.7401 4.0168 0.3960 16.8274 0.5793 357.1869 351.5452 341.0464 
-6.5534 86.4951 88.0082 2.0439 0.3337 176.1927 358.2440 2.5896 357.2972 1.3330 13.4510 357.0991 6.7919 344.7207 2.4194 356.3368 14.9734 1.9926 339.7368 358.7782 6.8363 315.4989 37.1502 339.8587 27.4714 351.6465 326.8740 83.5598 358.5969 353.8397 19.9683 358.8624 353.4548 65.8908 33.4754 0.3435 342.3802 355.5463 28.1951 280.0889 353.5041 27.7420 358.2103 6.1446 357.0944 357.5406 11.3355 356.7183 358.8546 347.6155 19.7908 1.8719 332.6906 4.1671 0.4559 16.7814 0.4289 357.4181 351.1738 341.0527 
-6.4471 86.3856 87.4117 1.9444 0.3155 176.3934 358.1974 2.5649 357.3276 1.4343 13.4839 357.1164 6.8134 344.7005 2.3607 356.3085 15.0059 1.9364 339.6446 358.7938 6.7770 315.5517 37.0511 339.9888 27.3838 351.6798 326.7860 83.4923 358.6533 353.6959 19.9219 358.8429 353.3526 65.9930 33.3999 0.1780 342.3972 355.5416 28.1918 280.0564 353.5643 27.7874 358.2231 6.3940 357.0915 357.5230 11.5679 356.4880 358.7415 347.3907 19.7251 1.7626 332.5361 4.2567 0.4813 16.9951 0.4957 357.7699 350.7375 340.8853 
-6.3128 86.2825 86.7868 1.8737 0.3808 176.5535 358.1424 2.5992 357.3673 1.5662 13.5353 357.1377 6.7219 344.7559 2.2606 356.4711 14.9012 1.8284 339.5846 358.8076 6.6740 315.4421 36.8090 340.2437 27.2006 351.7530 326.6710 83.6078 358.6264 353.4797 19.8840 358.8120 353.2460 66.0837 33.3252 0.0184 342.4095 355.5489 28.1574 280.1012 353.5167 27.7564 358.2783 6.7515 357.1938 357.5150 11.8050 356.1911 358.6178 347.1949 19.5815 1.7338 332.4961 4.3991 0.4834 17.3262 0.6248 357.8352 350.3784 340.6863 
-6.1795 86.1786 86.1592 1.7910 0.4312 176.7772 358.1180 2.6221 357.3532 1.6646 13.5939 357.1106 6.7161 344.7292 2.1800 356.5046 14.8931 1.7430 339.5430 358.7878 6.6331 315.4167 36.8572 340.3866 27.2013 351.7249 326.6609 83.6435 358.5778 353.3569 19.8817 358.8077 353.1438 66.1162 33.2930 359.8936 342.4322 355.5710 28.1424 280.0748 353.5948 27.7744 358.3584 7.0441 357.0006 357.4162 12.1101 356.1167 358.7279 347.0646 19.5032 1.6587 332.4502 4.4527 0.4995 17.7725 0.7721 357.6936 350.0943 340.4741 
-6.0518 86.0690 85.5392 1.7138 0.3497 177.0265 358.2214 2.5924 357.2492 1.6239 13.5091 357.0154 6.7340 344.7221 2.1599 356.5371 14.9414 1.7238 339.5157 358.7841 6.7077 315.3674 36.8424 340.5916 27.0970 351.7651 326.6608 83.7346 358.6150 353.1367 19.9269 358.7790 353.0918 66.1602 33.2415 359.7084 342.4739 355.5577 28.1702 280.0636 353.7721 27.7360 358.4356 7.1690 356.7288 357.3404 12.4687 356.0768 358.7576 346.8623 19.4725 1.5841 332.2579 4.4483 0.5294 18.3865 0.8241 357.6725 349.8820 340.3271 
-5.8840 85.9880 84.9969 1.6544 0.3366 177.2197 358.2203 2.5071 357.2555 1.6895 13.6109 357.0140 6.6876 344.6817 2.1466 356.6114 14.9467 1.7036 339.5059 358.7830 6.7650 315.1180 36.6909 340.8859 26.8754 351.8338 326.5275 83.9925 358.6958 352.8573 19.9057 358.7965 353.1239 66.1877 33.1795 359.6278 342.5367 355.5905 28.1191 280.1492 353.6399 27.7666 358.5128 7.4414 356.7062 357.3300 12.6014 355.9102 358.5846 346.6095 19.4090 1.6001 332.2771 4.5245 0.5499 18.7727 0.8199 357.5486 349.6381 340.1927 
-5.7199 85.9046 84.4476 1.5757 0.3117 177.4700 358.2053 2.4230 357.2580 1.7677 13.6807 357.0069 6.7303 344.6508 2.0814 356.5974 14.9517 1.6319 339.4863 358.7985 6.6874 314.8740 36.5231 341.2411 26.7065 351.8723 326.4175 83.9362 358.7156 352.5186 19.8948 358.7865 353.0416 66.2181 33.1349 359.5614 342.4952 355.5986 28.1381 280.1828 353.7704 27.8518 358.5690 7.7017 356.6127 357.3284 12.7225 355.8385 358.3035 346.2849 19.1732 1.5706 332.3077 4.5387 0.5441 19.2383 1.0382 357.3708 349.3929 339.8476 
-5.5402 85.8224 83.8929 1.4996 0.2605 177.7047 358.2170 2.3073 357.2387 1.8131 13.7599 356.9816 6.7093 344.5857 2.0386 356.6859 14.9655 1.5765 339.4578 358.7740 6.8412 314.9217 36.9175 341.2332 26.8999 351.7656 326.5619 83.8158 358.6640 352.5533 19.8850 358.7774 353.0149 66.2777 33.1064 359.4591 342.4885 355.5959 28.0870 280.2701 353.5293 27.8839 358.6553 7.9236 356.4554 357.2835 12.8656 355.8142 358.6990 346.1585 19.2332 1.5655 332.3347 4.5608 0.5492 19.7913 1.3570 357.5999 349.1268 339.5229 
-5.3394 85.7449 83.3072 1.4491 0.2721 177.9141 358.2219 2.2682 357.2500 1.8773 13.7578 356.9868 6.6979 344.6166 1.9898 356.7510 14.9431 1.5357 339.3636 358.7380 6.9563 315.0085 37.2961 341.3581 27.0638 351.7400 326.7075 83.7639 358.5563 352.6669 19.9060 358.7782 353.0140 66.3286 33.0065 359.3098 342.5393 355.5979 28.0822 280.2545 353.5730 27.9338 358.8054 8.2334 356.2356 357.1574 13.0166 355.8633 358.5420 346.0166 19.2114 1.6266 332.5081 4.6669 0.4966 20.2982 1.9703 357.5872 349.0908 339.0149 
-5.1303 85.6756 82.7820 1.3928 0.1792 178.1630 358.2479 2.1463 357.2169 1.9061 13.7485 356.9521 6.7475 344.6505 1.9357 356.7797 14.8973 1.4729 339.3651 358.7597 6.6635 314.4330 36.3308 342.1846 26.3798 352.0195 326.2900 83.9524 358.7103 351.9080 19.9617 358.7832 352.9963 66.3669 32.8768 359.1806 342.5898 355.6160 28.0683 280.3175 353.5838 27.9958 358.9346 8.3352 356.1029 357.1270 13.2792 355.7306 358.1833 345.7684 19.0998 1.6828 332.5933 4.6549 0.4535 20.6827 2.2460 357.5261 349.2974 338.6801 
-4.9483 85.6294 82.4300 1.3008 0.0062 178.4802 358.2510 1.9871 357.1529 1.9236 13.7326 356.8897 6.7537 344.6207 1.9181 356.8366 14.8918 1.4386 339.2988 358.7699 6.6624 314.4096 36.2688 342.3763 26.2746 351.9825 326.2508 83.7922 358.7714 351.7569 19.9894 358.7780 353.0278 66.4256 32.7588 359.0678 342.6168 355.6172 28.0994 280.3090 353.7007 28.0276 358.9833 8.2343 355.8720 357.1518 13.5446 355.5353 358.0951 345.5160 19.1727 1.6237 332.6601 4.5936 0.5095 20.6041 1.9243 357.7167 349.9251 338.7000 
-4.7477 85.6041 82.0453 1.2918 359.9578 178.7340 358.3431 1.8870 357.1070 1.9128 13.8239 356.8455 6.7357 344.6070 1.8897 356.9199 14.8390 1.3938 339.2935 358.7882 6.5720 314.1037 35.7150 342.7713 25.8760 352.1133 326.2056 83.9161 358.7605 351.0650 20.0302 358.7757 353.0879 66.4430 32.7763 359.0218 342.5966 355.6084 28.0699 280.3056 353.8025 27.9630 359.0968 8.3268 355.7290 357.2135 13.7221 355.4370 357.9680 345.3219 19.1492 1.6783 332.8787 4.5862 0.5046 20.4903 1.6357 357.9062 350.7550 338.8157 
-4.5000 85.5679 81.3316 1.3685 359.9246 178.9662 358.5307 1.8229 357.0702 1.9633 13.8323 356.8060 6.6468 344.7074 1.8697 357.0728 14.6779 1.3742 339.1870 358.7528 6.8827 314.3488 36.5372 342.5776 26.4448 351.8443 326.5863 83.7083 358.6483 351.4203 20.0699 358.7788 353.1733 66.4392 32.7299 358.9239 342.6884 355.6508 28.0901 280.0256 354.0093 28.0515 359.3497 8.4685 355.6196 357.2646 14.2323 355.2367 357.6151 345.2229 19.1226 1.8369 333.0328 4.5155 0.5509 20.9038 1.5912 357.8875 351.8731 338.4199 
-4.2388 85.5364 80.5465 1.4874 359.8835 179.1968 358.7935 1.7526 357.0047 1.9881 13.8466 356.7418 6.6360 344.7108 1.8583 357.1463 14.6488 1.3596 339.1859 358.7452 6.8680 313.9864 36.2323 343.0243 26.3332 351.9616 326.5477 83.9270 358.7282 351.1588 20.1276 358.8017 353.2566 66.4011 32.5912 358.8733 342.7802 355.6750 28.0023 280.0411 353.9801 28.1601 359.7330 8.6124 355.0576 357.0872 14.8029 355.3895 357.2166 345.1325 19.0586 2.0282 333.1122 4.5284 0.7234 21.5493 1.4207 357.6762 352.9858 337.7840 
-3.9813 85.5237 79.8504 1.6244 359.8382 179.4115 358.9802 1.7528 356.9882 2.1284 13.7603 356.7131 6.6582 344.7464 1.8497 357.1226 14.6038 1.3548 339.1579 358.7517 6.7899 313.4772 35.6831 343.6302 26.0856 352.0809 326.4619 84.0642 358.8103 350.6255 20.1187 358.8159 353.3053 66.4030 32.7856 358.8103 342.6295 355.6353 27.8900 279.9485 354.0287 27.9903 0.0436 8.6866 354.9272 357.1447 15.3795 355.3066 356.7772 345.0590 18.8797 2.2287 333.1376 4.4862 0.8774 22.2105 1.2700 357.0929 353.7860 337.3826 
-3.7308 85.5341 79.2776 1.7694 359.8138 179.5835 359.2733 1.7338 356.9030 2.0815 13.8042 356.6377 6.7259 344.6582 1.8630 357.1759 14.6047 1.3510 339.2844 358.7646 6.7866 312.9931 35.3170 344.0031 26.0413 352.0814 326.4879 84.0020 358.9534 350.3748 20.1761 358.8364 353.4343 66.3512 32.6293 358.8516 342.6294 355.6638 27.8007 280.2019 353.9045 28.1273 0.3552 8.7462 354.8152 357.1684 15.8643 355.2734 356.5515 345.0430 18.8058 2.4530 333.1747 4.3585 0.9114 22.7590 1.3264 356.5129 354.2014 337.2289 
-3.4674 85.5547 78.7024 1.9389 359.8553 179.7338 359.3823 1.8877 356.9543 2.3114 13.6508 356.6662 6.7367 344.6882 1.8433 357.2080 14.5941 1.3294 339.2430 358.7922 6.6220 312.4266 34.5996 344.6890 25.7255 352.1937 326.3168 84.0626 359.1097 349.8440 20.1438 358.8370 353.4648 66.3186 32.9046 358.8360 342.3938 355.5980 27.6564 280.2436 353.8531 27.8735 0.7062 8.8703 354.6833 357.1606 16.3673 355.3082 356.2196 345.0493 18.6896 2.7308 333.2887 4.1919 0.9004 23.3277 1.4904 356.1619 354.4168 337.0738 
-3.2272 85.5916 78.3354 2.0460 359.8318 179.9274 359.4877 1.8869 356.9105 2.4184 13.6868 356.6093 6.8045 344.6139 1.7966 357.2505 14.6102 1.2609 339.3096 358.8190 6.4847 312.0855 34.2484 344.9561 25.5654 352.2350 326.3531 84.2850 359.2177 349.6533 20.1398 358.8489 353.4899 66.2314 32.8695 358.9527 342.3467 355.6141 27.6563 280.3967 353.9716 28.0014 0.9721 8.8906 354.5630 357.1768 16.6862 355.2615 355.9019 344.9858 18.6254 2.9398 333.3795 4.0394 0.8727 23.6344 1.6780 355.9672 354.3287 336.9184 
-2.9860 85.6391 77.9666 2.1198 359.7695 180.1073 359.5327 1.8352 356.8844 2.5445 13.7215 356.5676 6.8779 344.5611 1.7730 357.2502 14.6053 1.2204 339.3396 358.8191 6.5519 312.0193 34.2252 344.8934 25.4152 352.2889 326.5325 84.4391 359.2753 349.6850 20.1365 358.8420 353.5219 66.0871 32.9510 359.0846 342.3473 355.6084 27.7067 280.2991 354.1698 28.0432 1.2102 8.8736 354.4438 357.1620 16.9991 355.2812 355.5718 345.0112 18.5985 3.1489 333.4632 3.9209 0.8090 23.8765 1.8715 355.6397 354.2129 336.7349 
-2.7088 85.6889 77.3283 2.2121 359.7337 180.3211 359.5783 1.7619 356.8401 2.7545 13.8037 356.4976 6.9178 344.5005 1.7589 357.3114 14.5416 1.1925 339.3220 358.8249 6.5017 311.7725 34.0551 345.2058 25.2730 352.3539 326.5282 84.5114 359.1616 349.4610 20.1447 358.8447 353.5443 65.9137 33.0009 359.2604 342.2883 355.6086 27.6270 280.2052 353.9267 27.7455 1.5009 8.7858 354.3529 357.1216 17.7355 355.4872 355.6990 345.2371 18.4810 3.3755 333.6199 3.7715 0.7747 24.3096 2.0199 355.6608 354.0143 336.7812 
